<svg width="35" height="35" viewBox="0 0 35 35" fill="none" xmlns="http://www.w3.org/2000/svg">
<g clip-path="url(#clip0_94_327)">
<path d="M12.8687 27.1673C5.71945 29.312 5.71945 23.5926 2.85974 22.8777M22.8777 31.4568V25.9233C22.9314 25.2415 22.8392 24.5561 22.6075 23.9126C22.3758 23.2692 22.0097 22.6824 21.5337 22.1914C26.0234 21.6909 30.7419 19.9894 30.7419 12.1824C30.7416 10.186 29.9737 8.26628 28.5972 6.82041C29.249 5.07385 29.2029 3.14332 28.4685 1.42985C28.4685 1.42985 26.7812 0.929401 22.8777 3.54604C19.6005 2.65784 16.146 2.65784 12.8687 3.54604C8.96523 0.929401 7.278 1.42985 7.278 1.42985C6.54359 3.14332 6.4975 5.07385 7.14931 6.82041C5.76253 8.277 4.99383 10.2141 5.00453 12.2253C5.00453 19.9751 9.72305 21.6766 14.2128 22.2343C13.7424 22.7204 13.3796 23.3001 13.148 23.9357C12.9164 24.5713 12.8213 25.2485 12.8687 25.9233V31.4568" stroke="#1E1E1E" stroke-width="3.21718" stroke-linecap="round" stroke-linejoin="round"/>
</g>
<defs>
<clipPath id="clip0_94_327">
<rect width="34.3165" height="34.3165" fill="white"/>
</clipPath>
</defs>
</svg>
