<svg width="35" height="35" viewBox="0 0 35 35" fill="none" xmlns="http://www.w3.org/2000/svg">
<path d="M5.71942 28.5971C4.933 28.5971 4.25382 28.3231 3.68188 27.775C3.13377 27.203 2.85971 26.5238 2.85971 25.7374V8.57913C2.85971 7.79271 3.13377 7.12545 3.68188 6.57733C4.25382 6.00539 4.933 5.71942 5.71942 5.71942H28.5971C29.3835 5.71942 30.0508 6.00539 30.5989 6.57733C31.1709 7.12545 31.4568 7.79271 31.4568 8.57913V25.7374C31.4568 26.5238 31.1709 27.203 30.5989 27.775C30.0508 28.3231 29.3835 28.5971 28.5971 28.5971H5.71942ZM17.1583 18.5881L28.5971 11.4388V8.57913L17.1583 15.7284L5.71942 8.57913V11.4388L17.1583 18.5881Z" fill="#1D1B20"/>
</svg>
